<mxfile host="app.diagrams.net" modified="2022-01-04T11:26:37.189Z" agent="5.0 (Windows NT 10.0; Win64; x64) AppleWebKit/537.36 (KHTML, like Gecko) Chrome/96.0.4664.93 Safari/537.36 Edg/96.0.1054.53" etag="etnqlgJLWGFcnf4rKtsR" version="16.1.4" type="github">
  <diagram id="C5RBs43oDa-KdzZeNtuy" name="Page-1">
    <mxGraphModel dx="1026" dy="532" grid="1" gridSize="10" guides="1" tooltips="1" connect="1" arrows="1" fold="1" page="1" pageScale="1" pageWidth="827" pageHeight="1169" math="0" shadow="0">
      <root>
        <mxCell id="WIyWlLk6GJQsqaUBKTNV-0" />
        <mxCell id="WIyWlLk6GJQsqaUBKTNV-1" parent="WIyWlLk6GJQsqaUBKTNV-0" />
        <mxCell id="5oCXE8T_dQ10nB1SNqem-7" value="" style="group" vertex="1" connectable="0" parent="WIyWlLk6GJQsqaUBKTNV-1">
          <mxGeometry x="310" y="70" width="310" height="130" as="geometry" />
        </mxCell>
        <mxCell id="5oCXE8T_dQ10nB1SNqem-2" value="&lt;p style=&quot;margin: 0px ; margin-top: 6px ; text-align: center&quot;&gt;&lt;b&gt;Logtalk&lt;/b&gt;&lt;/p&gt;" style="align=left;overflow=fill;html=1;dropTarget=0;" vertex="1" parent="5oCXE8T_dQ10nB1SNqem-7">
          <mxGeometry width="310" height="130" as="geometry" />
        </mxCell>
        <mxCell id="5oCXE8T_dQ10nB1SNqem-3" value="" style="shape=component;jettyWidth=8;jettyHeight=4;" vertex="1" parent="5oCXE8T_dQ10nB1SNqem-2">
          <mxGeometry x="1" width="20" height="20" relative="1" as="geometry">
            <mxPoint x="-24" y="4" as="offset" />
          </mxGeometry>
        </mxCell>
        <mxCell id="5oCXE8T_dQ10nB1SNqem-4" value="RDF Store" style="shape=module;align=left;spacingLeft=20;align=center;verticalAlign=top;" vertex="1" parent="5oCXE8T_dQ10nB1SNqem-7">
          <mxGeometry x="160" y="46.42857142857143" width="100" height="46.42857142857143" as="geometry" />
        </mxCell>
        <mxCell id="5oCXE8T_dQ10nB1SNqem-5" value="XMPPÂ " style="shape=module;align=left;spacingLeft=20;align=center;verticalAlign=top;" vertex="1" parent="5oCXE8T_dQ10nB1SNqem-7">
          <mxGeometry x="30" y="46.42857142857143" width="100" height="46.42857142857143" as="geometry" />
        </mxCell>
        <mxCell id="5oCXE8T_dQ10nB1SNqem-8" value="" style="group" vertex="1" connectable="0" parent="WIyWlLk6GJQsqaUBKTNV-1">
          <mxGeometry x="40" y="70" width="180" height="130" as="geometry" />
        </mxCell>
        <mxCell id="5oCXE8T_dQ10nB1SNqem-0" value="&lt;p style=&quot;margin: 0px ; margin-top: 6px ; text-align: center&quot;&gt;&lt;b&gt;Graphics (Godot)&lt;/b&gt;&lt;/p&gt;" style="align=left;overflow=fill;html=1;dropTarget=0;" vertex="1" parent="5oCXE8T_dQ10nB1SNqem-8">
          <mxGeometry width="180" height="130" as="geometry" />
        </mxCell>
        <mxCell id="5oCXE8T_dQ10nB1SNqem-1" value="" style="shape=component;jettyWidth=8;jettyHeight=4;" vertex="1" parent="5oCXE8T_dQ10nB1SNqem-0">
          <mxGeometry x="1" width="20" height="20" relative="1" as="geometry">
            <mxPoint x="-24" y="4" as="offset" />
          </mxGeometry>
        </mxCell>
        <mxCell id="5oCXE8T_dQ10nB1SNqem-6" value="XMPP" style="shape=module;align=left;spacingLeft=20;align=center;verticalAlign=top;" vertex="1" parent="5oCXE8T_dQ10nB1SNqem-8">
          <mxGeometry x="40" y="45" width="100" height="50" as="geometry" />
        </mxCell>
        <mxCell id="5oCXE8T_dQ10nB1SNqem-16" style="edgeStyle=orthogonalEdgeStyle;rounded=0;orthogonalLoop=1;jettySize=auto;html=1;exitX=0.75;exitY=0;exitDx=0;exitDy=0;entryX=0.5;entryY=1;entryDx=0;entryDy=0;" edge="1" parent="WIyWlLk6GJQsqaUBKTNV-1" source="5oCXE8T_dQ10nB1SNqem-9" target="5oCXE8T_dQ10nB1SNqem-2">
          <mxGeometry relative="1" as="geometry" />
        </mxCell>
        <mxCell id="5oCXE8T_dQ10nB1SNqem-9" value="&lt;p style=&quot;margin: 0px ; margin-top: 6px ; text-align: center&quot;&gt;&lt;b&gt;Local XMPP server&lt;/b&gt;&lt;/p&gt;" style="align=left;overflow=fill;html=1;dropTarget=0;" vertex="1" parent="WIyWlLk6GJQsqaUBKTNV-1">
          <mxGeometry x="200" y="260" width="180" height="90" as="geometry" />
        </mxCell>
        <mxCell id="5oCXE8T_dQ10nB1SNqem-10" value="" style="shape=component;jettyWidth=8;jettyHeight=4;" vertex="1" parent="5oCXE8T_dQ10nB1SNqem-9">
          <mxGeometry x="1" width="20" height="20" relative="1" as="geometry">
            <mxPoint x="-24" y="4" as="offset" />
          </mxGeometry>
        </mxCell>
        <mxCell id="5oCXE8T_dQ10nB1SNqem-14" style="edgeStyle=orthogonalEdgeStyle;rounded=0;orthogonalLoop=1;jettySize=auto;html=1;entryX=0.25;entryY=0;entryDx=0;entryDy=0;" edge="1" parent="WIyWlLk6GJQsqaUBKTNV-1" source="5oCXE8T_dQ10nB1SNqem-0" target="5oCXE8T_dQ10nB1SNqem-9">
          <mxGeometry relative="1" as="geometry" />
        </mxCell>
        <mxCell id="5oCXE8T_dQ10nB1SNqem-17" value="&lt;p style=&quot;margin: 0px ; margin-top: 6px ; text-align: center&quot;&gt;&lt;b&gt;Haskell&lt;/b&gt;&lt;/p&gt;" style="align=left;overflow=fill;html=1;dropTarget=0;" vertex="1" parent="WIyWlLk6GJQsqaUBKTNV-1">
          <mxGeometry x="200" y="420" width="180" height="90" as="geometry" />
        </mxCell>
        <mxCell id="5oCXE8T_dQ10nB1SNqem-18" value="" style="shape=component;jettyWidth=8;jettyHeight=4;" vertex="1" parent="5oCXE8T_dQ10nB1SNqem-17">
          <mxGeometry x="1" width="20" height="20" relative="1" as="geometry">
            <mxPoint x="-24" y="4" as="offset" />
          </mxGeometry>
        </mxCell>
        <mxCell id="5oCXE8T_dQ10nB1SNqem-27" value="&lt;p style=&quot;margin: 0px ; margin-top: 6px ; text-align: center&quot;&gt;&lt;b&gt;RDF Store&lt;/b&gt;&lt;/p&gt;" style="align=left;overflow=fill;html=1;dropTarget=0;" vertex="1" parent="WIyWlLk6GJQsqaUBKTNV-1">
          <mxGeometry x="446" y="420" width="180" height="90" as="geometry" />
        </mxCell>
        <mxCell id="5oCXE8T_dQ10nB1SNqem-28" value="" style="shape=component;jettyWidth=8;jettyHeight=4;" vertex="1" parent="5oCXE8T_dQ10nB1SNqem-27">
          <mxGeometry x="1" width="20" height="20" relative="1" as="geometry">
            <mxPoint x="-24" y="4" as="offset" />
          </mxGeometry>
        </mxCell>
        <mxCell id="5oCXE8T_dQ10nB1SNqem-29" value="" style="endArrow=block;startArrow=block;endFill=1;startFill=1;html=1;rounded=0;exitX=0.5;exitY=1;exitDx=0;exitDy=0;entryX=0.5;entryY=0;entryDx=0;entryDy=0;edgeStyle=orthogonalEdgeStyle;" edge="1" parent="WIyWlLk6GJQsqaUBKTNV-1" source="5oCXE8T_dQ10nB1SNqem-9" target="5oCXE8T_dQ10nB1SNqem-17">
          <mxGeometry width="160" relative="1" as="geometry">
            <mxPoint x="330" y="280" as="sourcePoint" />
            <mxPoint x="490" y="280" as="targetPoint" />
          </mxGeometry>
        </mxCell>
        <mxCell id="5oCXE8T_dQ10nB1SNqem-31" value="" style="endArrow=block;startArrow=block;endFill=1;startFill=1;html=1;rounded=0;entryX=0;entryY=0.5;entryDx=0;entryDy=0;exitX=1;exitY=0.5;exitDx=0;exitDy=0;" edge="1" parent="WIyWlLk6GJQsqaUBKTNV-1" source="5oCXE8T_dQ10nB1SNqem-17" target="5oCXE8T_dQ10nB1SNqem-27">
          <mxGeometry width="160" relative="1" as="geometry">
            <mxPoint x="376" y="465" as="sourcePoint" />
            <mxPoint x="436" y="464.5" as="targetPoint" />
          </mxGeometry>
        </mxCell>
        <mxCell id="5oCXE8T_dQ10nB1SNqem-34" value="Prototype system" style="shape=umlFrame;whiteSpace=wrap;html=1;fillColor=#E6E6E6;fontColor=#333333;strokeColor=#666666;" vertex="1" parent="WIyWlLk6GJQsqaUBKTNV-1">
          <mxGeometry x="20" y="30" width="640" height="330" as="geometry" />
        </mxCell>
        <mxCell id="5oCXE8T_dQ10nB1SNqem-35" value="High Speed" style="shape=umlFrame;whiteSpace=wrap;html=1;fillColor=#FFFFCC;" vertex="1" parent="WIyWlLk6GJQsqaUBKTNV-1">
          <mxGeometry x="30" y="250" width="650" height="280" as="geometry" />
        </mxCell>
      </root>
    </mxGraphModel>
  </diagram>
</mxfile>
